<svg width="317" height="192" xmlns="http://www.w3.org/2000/svg"><title>icons</title><g fill="none" fill-rule="evenodd"><path d="M293.029 19.606c-3.224 0-5.48 2.686-6.254 6.915l11.348-.134c0-3.558-2.129-6.78-5.094-6.78zm-.58 27.327c-6.77 0-11.992-5.573-11.992-13.362 0-9.534 5.61-16.047 13.54-16.047 6.381 0 9.927 3.76 9.927 9.736v1.209l-17.406-.135c-.13.739-.194 1.948-.194 3.425 0 6.848 4.126 11.347 9.607 11.347 3.287 0 4.964-1.208 7.542-3.491l.967 1.543c-3.675 3.492-6.705 5.775-11.992 5.775zm-29.785-.537V44.85c2.901-.2 3.739-.872 4.255-2.014V8.057c0-2.283-.323-3.223-4.77-3.626V3.09L273.945 0l.387 1.142-1.87 2.417v39.278c.645 1.343 1.87 1.813 4.513 2.014v1.545h-14.312zm-19.663-10.34c-.258 1.074-.451 2.014-.451 3.491 0 2.014 1.096 4.028 3.223 4.028 1.934 0 3.03-.67 4.77-2.081l.065-9.065c-1.676.806-5.802 2.687-7.607 3.627zM255.894 47c-3.48 0-5.157-2.485-5.286-4.23-2.192 2.418-5.028 4.23-7.736 4.23-3.481 0-6.447-2.215-6.447-6.042 0-1.88.452-3.828 1.354-5.372l12.83-4.834v-4.97c0-3.02-1.355-5.908-4.256-5.908-1.74 0-3.417 2.216-3.545 5.64l-5.803 1.007v-.67c1.934-6.044 8.317-8.393 11.411-8.393 5.867 0 7.994 3.222 7.93 8.19l-.193 14.1c-.065 2.754 1.353 3.425 2.643 3.425 1.031 0 2.062-.671 3.288-1.947v1.947c-1.419 1.746-3.932 3.827-6.19 3.827zM234.75 9.87L224.11 28.536v12.556c1.225 3.02 4.32 3.423 7.286 3.558v1.746h-20.824V44.65c2.965-.135 6.576-.604 7.543-2.618v-12.96l-10.83-19.068c-1.87-3.223-3.675-4.296-7.286-4.565V3.693h18.116v1.746c-3.417.2-4.513.873-5.48 1.679l10.057 18.128 9.864-18.062c-1.031-.805-2.385-1.544-5.802-1.745V3.693h15.472v1.746c-3.481.135-5.673 1.342-7.478 4.431z" fill="#00356B"/><path d="M293.029 69.606c-3.224 0-5.48 2.686-6.254 6.915l11.348-.134c0-3.558-2.129-6.78-5.094-6.78zm-.58 27.327c-6.77 0-11.992-5.573-11.992-13.362 0-9.534 5.61-16.047 13.54-16.047 6.381 0 9.927 3.76 9.927 9.736v1.209l-17.406-.135c-.13.739-.194 1.948-.194 3.425 0 6.848 4.126 11.347 9.607 11.347 3.287 0 4.964-1.208 7.542-3.491l.967 1.543c-3.675 3.492-6.705 5.775-11.992 5.775zm-29.785-.537V94.85c2.901-.2 3.739-.872 4.255-2.014v-34.78c0-2.283-.323-3.223-4.77-3.626V53.09L273.945 50l.387 1.142-1.87 2.417v39.278c.645 1.343 1.87 1.813 4.513 2.014v1.545h-14.312zm-19.663-10.34c-.258 1.074-.451 2.014-.451 3.491 0 2.014 1.096 4.028 3.223 4.028 1.934 0 3.03-.67 4.77-2.081l.065-9.065c-1.676.806-5.802 2.687-7.607 3.627zM255.894 97c-3.48 0-5.157-2.485-5.286-4.23-2.192 2.418-5.028 4.23-7.736 4.23-3.481 0-6.447-2.215-6.447-6.042 0-1.88.452-3.828 1.354-5.372l12.83-4.834v-4.97c0-3.02-1.355-5.908-4.256-5.908-1.74 0-3.417 2.216-3.545 5.64l-5.803 1.007v-.67c1.934-6.044 8.317-8.393 11.411-8.393 5.867 0 7.994 3.222 7.93 8.19l-.193 14.1c-.065 2.754 1.353 3.425 2.643 3.425 1.031 0 2.062-.671 3.288-1.947v1.947c-1.419 1.746-3.932 3.827-6.19 3.827zM234.75 59.87L224.11 78.536v12.556c1.225 3.02 4.32 3.423 7.286 3.558v1.746h-20.824V94.65c2.965-.135 6.576-.604 7.543-2.618v-12.96l-10.83-19.068c-1.87-3.223-3.675-4.296-7.286-4.565v-1.746h18.116v1.746c-3.417.2-4.513.873-5.48 1.679l10.057 18.128 9.864-18.062c-1.031-.805-2.385-1.544-5.802-1.745v-1.746h15.472v1.746c-3.481.135-5.673 1.342-7.478 4.431z" fill="#FFF"/><path d="M150.436 31.704c-5.213 0-8.86 4.342-10.113 11.182l18.35-.218c0-5.753-3.442-10.964-8.237-10.964zm-.939 44.188c-10.945 0-19.39-9.012-19.39-21.607 0-15.416 9.07-25.948 21.894-25.948 10.32 0 16.054 6.08 16.054 15.744v1.954l-28.148-.218c-.209 1.195-.314 3.15-.314 5.538 0 11.073 6.673 18.348 15.535 18.348 5.316 0 8.028-1.954 12.197-5.645l1.564 2.496c-5.943 5.646-10.843 9.338-19.392 9.338zm-48.163-.869v-2.497c4.69-.326 6.045-1.412 6.88-3.258v-56.24c0-3.691-.522-5.21-7.715-5.862V4.995L119.578 0l.625 1.847-3.023 3.907v63.514c1.043 2.172 3.023 2.932 7.297 3.258v2.497h-23.143zm-31.798-16.72c-.417 1.737-.73 3.257-.73 5.646 0 3.257 1.773 6.513 5.213 6.513 3.128 0 4.9-1.084 7.715-3.365l.104-14.658c-2.71 1.303-9.383 4.344-12.302 5.864zM90.386 76c-5.628 0-8.34-4.018-8.548-6.84-3.545 3.91-8.131 6.84-12.51 6.84-5.63 0-10.426-3.582-10.426-9.77 0-3.041.73-6.19 2.19-8.686l20.746-7.818v-8.035c0-4.885-2.19-9.554-6.88-9.554-2.815 0-5.526 3.583-5.734 9.12l-9.384 1.629V41.8c3.128-9.773 13.45-13.571 18.453-13.571 9.488 0 12.927 5.21 12.824 13.244l-.313 22.8c-.104 4.452 2.189 5.537 4.274 5.537 1.668 0 3.336-1.085 5.317-3.148v3.148C98.101 72.635 94.037 76 90.386 76zM56.192 15.96L38.99 46.143v20.303c1.981 4.886 6.985 5.536 11.781 5.754v2.823H17.098V72.2c4.795-.218 10.634-.977 12.197-4.234V47.012L11.781 16.177C8.758 10.965 5.839 9.23 0 8.794V5.972h29.295v2.822c-5.525.326-7.297 1.413-8.861 2.716l16.263 29.313 15.95-29.206c-1.667-1.302-3.857-2.497-9.382-2.823V5.972h25.02v2.822c-5.63.219-9.174 2.171-12.093 7.166z" fill="#00356B"/><path d="M150.436 131.704c-5.213 0-8.86 4.342-10.113 11.182l18.35-.218c0-5.753-3.442-10.964-8.237-10.964zm-.939 44.188c-10.945 0-19.39-9.012-19.39-21.607 0-15.416 9.07-25.948 21.894-25.948 10.32 0 16.054 6.08 16.054 15.744v1.954l-28.148-.218c-.209 1.195-.314 3.15-.314 5.538 0 11.073 6.673 18.348 15.535 18.348 5.316 0 8.028-1.954 12.197-5.645l1.564 2.496c-5.943 5.646-10.843 9.338-19.392 9.338zm-48.163-.869v-2.497c4.69-.326 6.045-1.412 6.88-3.258v-56.24c0-3.691-.522-5.21-7.715-5.862v-2.171L119.578 100l.625 1.847-3.023 3.907v63.514c1.043 2.172 3.023 2.932 7.297 3.258v2.497h-23.143zm-31.798-16.72c-.417 1.737-.73 3.257-.73 5.646 0 3.257 1.773 6.513 5.213 6.513 3.128 0 4.9-1.084 7.715-3.365l.104-14.658c-2.71 1.303-9.383 4.344-12.302 5.864zM90.386 176c-5.628 0-8.34-4.018-8.548-6.84-3.545 3.91-8.131 6.84-12.51 6.84-5.63 0-10.426-3.582-10.426-9.77 0-3.041.73-6.19 2.19-8.686l20.746-7.818v-8.035c0-4.885-2.19-9.554-6.88-9.554-2.815 0-5.526 3.583-5.734 9.12l-9.384 1.629V141.8c3.128-9.773 13.45-13.571 18.453-13.571 9.488 0 12.927 5.21 12.824 13.244l-.313 22.8c-.104 4.452 2.189 5.537 4.274 5.537 1.668 0 3.336-1.085 5.317-3.148v3.148C98.101 172.635 94.037 176 90.386 176zm-34.194-60.04L38.99 146.143v20.303c1.981 4.886 6.985 5.536 11.781 5.754v2.823H17.098V172.2c4.795-.218 10.634-.977 12.197-4.234v-20.954l-17.514-30.835C8.758 110.965 5.839 109.23 0 108.794v-2.822h29.295v2.822c-5.525.326-7.297 1.413-8.861 2.716l16.263 29.313 15.95-29.206c-1.667-1.302-3.857-2.497-9.382-2.823v-2.822h25.02v2.822c-5.63.219-9.174 2.171-12.093 7.166zM246 192c25.405 0 46-20.595 46-46s-20.595-46-46-46-46 20.595-46 46 20.595 46 46 46zm-8.638-62.1v32.2l23-16.1-23-16.1zM313 102a.506.506 0 0 0-.305-.46.492.492 0 0 0-.547.108l-1.015 1.008A6.073 6.073 0 0 0 307 101c-3.305 0-6 2.695-6 6s2.695 6 6 6c1.79 0 3.477-.79 4.617-2.164.078-.102.078-.25-.015-.336l-1.07-1.078a.3.3 0 0 0-.196-.07.255.255 0 0 0-.18.093A3.955 3.955 0 0 1 307 111c-2.203 0-4-1.797-4-4 0-2.203 1.797-4 4-4 1.023 0 1.992.39 2.727 1.07l-1.079 1.078a.482.482 0 0 0-.109.54.501.501 0 0 0 .461.312h3.5c.273 0 .5-.227.5-.5V102z" fill="#FFF"/><g fill="#4A4A4A"><path d="M301.429 120.722l14.85 14.85-.708.706-10.62-10.62-4.23-4.23.708-.706z"/><path d="M301.429 136.278l14.85-14.85-.708-.706-10.62 10.62-4.23 4.23.708.706z"/></g><g fill="#FFF"><path d="M301.429 140.722l14.85 14.85-.708.706-10.62-10.62-4.23-4.23.708-.706z"/><path d="M301.429 156.278l14.85-14.85-.708-.706-10.62 10.62-4.23 4.23.708.706z"/></g></g></svg>